<mxfile host="app.diagrams.net" modified="2021-08-24T12:59:29.623Z" agent="5.0 (Macintosh; Intel Mac OS X 10_15_7) AppleWebKit/537.36 (KHTML, like Gecko) Chrome/92.0.4515.159 Safari/537.36" etag="lA_cUPh1YTXtA4R86zHu" version="14.9.8" type="github">
  <diagram id="mCUJHjiyGCLOeN5kABfm" name="Page-1">
    <mxGraphModel dx="1298" dy="2035" grid="1" gridSize="10" guides="1" tooltips="1" connect="1" arrows="1" fold="1" page="1" pageScale="1" pageWidth="827" pageHeight="1169" math="0" shadow="0">
      <root>
        <mxCell id="0" />
        <mxCell id="1" parent="0" />
        <mxCell id="BamsP_97NYOLKTMDXpIl-1" style="edgeStyle=orthogonalEdgeStyle;rounded=0;orthogonalLoop=1;jettySize=auto;html=1;entryX=0;entryY=0.5;entryDx=0;entryDy=0;" parent="1" source="BamsP_97NYOLKTMDXpIl-3" target="BamsP_97NYOLKTMDXpIl-33" edge="1">
          <mxGeometry relative="1" as="geometry" />
        </mxCell>
        <mxCell id="BamsP_97NYOLKTMDXpIl-2" style="edgeStyle=orthogonalEdgeStyle;rounded=0;orthogonalLoop=1;jettySize=auto;html=1;entryX=0;entryY=0.5;entryDx=0;entryDy=0;" parent="1" source="BamsP_97NYOLKTMDXpIl-3" target="BamsP_97NYOLKTMDXpIl-32" edge="1">
          <mxGeometry relative="1" as="geometry" />
        </mxCell>
        <mxCell id="BamsP_97NYOLKTMDXpIl-3" value="账户" style="whiteSpace=wrap;html=1;align=center;" parent="1" vertex="1">
          <mxGeometry x="270" y="160" width="100" height="40" as="geometry" />
        </mxCell>
        <mxCell id="BamsP_97NYOLKTMDXpIl-4" value="科目" style="whiteSpace=wrap;html=1;align=center;" parent="1" vertex="1">
          <mxGeometry x="40" y="160" width="100" height="40" as="geometry" />
        </mxCell>
        <mxCell id="BamsP_97NYOLKTMDXpIl-5" value="科目要素" style="whiteSpace=wrap;html=1;align=center;" parent="1" vertex="1">
          <mxGeometry x="40" y="40" width="100" height="40" as="geometry" />
        </mxCell>
        <mxCell id="BamsP_97NYOLKTMDXpIl-6" value="" style="endArrow=none;html=1;rounded=0;exitX=1;exitY=0.5;exitDx=0;exitDy=0;entryX=0;entryY=0.5;entryDx=0;entryDy=0;" parent="1" source="BamsP_97NYOLKTMDXpIl-4" target="BamsP_97NYOLKTMDXpIl-3" edge="1">
          <mxGeometry relative="1" as="geometry">
            <mxPoint x="240" y="450" as="sourcePoint" />
            <mxPoint x="220" y="250" as="targetPoint" />
          </mxGeometry>
        </mxCell>
        <mxCell id="BamsP_97NYOLKTMDXpIl-7" value="1" style="resizable=0;html=1;align=left;verticalAlign=bottom;" parent="BamsP_97NYOLKTMDXpIl-6" connectable="0" vertex="1">
          <mxGeometry x="-1" relative="1" as="geometry">
            <mxPoint x="10" as="offset" />
          </mxGeometry>
        </mxCell>
        <mxCell id="BamsP_97NYOLKTMDXpIl-8" value="*" style="resizable=0;html=1;align=right;verticalAlign=bottom;" parent="BamsP_97NYOLKTMDXpIl-6" connectable="0" vertex="1">
          <mxGeometry x="1" relative="1" as="geometry">
            <mxPoint x="-10" as="offset" />
          </mxGeometry>
        </mxCell>
        <mxCell id="BamsP_97NYOLKTMDXpIl-9" value="" style="endArrow=none;html=1;rounded=0;" parent="1" source="BamsP_97NYOLKTMDXpIl-3" target="BamsP_97NYOLKTMDXpIl-12" edge="1">
          <mxGeometry relative="1" as="geometry">
            <mxPoint x="360" y="210" as="sourcePoint" />
            <mxPoint x="410" y="560" as="targetPoint" />
          </mxGeometry>
        </mxCell>
        <mxCell id="BamsP_97NYOLKTMDXpIl-10" value="1" style="resizable=0;html=1;align=left;verticalAlign=bottom;" parent="BamsP_97NYOLKTMDXpIl-9" connectable="0" vertex="1">
          <mxGeometry x="-1" relative="1" as="geometry">
            <mxPoint x="-20" y="20" as="offset" />
          </mxGeometry>
        </mxCell>
        <mxCell id="BamsP_97NYOLKTMDXpIl-11" value="*" style="resizable=0;html=1;align=right;verticalAlign=bottom;" parent="BamsP_97NYOLKTMDXpIl-9" connectable="0" vertex="1">
          <mxGeometry x="1" relative="1" as="geometry">
            <mxPoint x="-10" as="offset" />
          </mxGeometry>
        </mxCell>
        <mxCell id="BamsP_97NYOLKTMDXpIl-12" value="账户余额" style="whiteSpace=wrap;html=1;align=center;" parent="1" vertex="1">
          <mxGeometry x="270" y="300" width="100" height="40" as="geometry" />
        </mxCell>
        <mxCell id="BamsP_97NYOLKTMDXpIl-13" value="" style="endArrow=none;html=1;rounded=0;exitX=0.5;exitY=1;exitDx=0;exitDy=0;" parent="1" source="BamsP_97NYOLKTMDXpIl-5" target="BamsP_97NYOLKTMDXpIl-4" edge="1">
          <mxGeometry relative="1" as="geometry">
            <mxPoint x="-170" y="300" as="sourcePoint" />
            <mxPoint x="-40" y="300" as="targetPoint" />
          </mxGeometry>
        </mxCell>
        <mxCell id="BamsP_97NYOLKTMDXpIl-14" value="1" style="resizable=0;html=1;align=left;verticalAlign=bottom;" parent="BamsP_97NYOLKTMDXpIl-13" connectable="0" vertex="1">
          <mxGeometry x="-1" relative="1" as="geometry">
            <mxPoint x="10" y="20" as="offset" />
          </mxGeometry>
        </mxCell>
        <mxCell id="BamsP_97NYOLKTMDXpIl-15" value="*" style="resizable=0;html=1;align=right;verticalAlign=bottom;" parent="BamsP_97NYOLKTMDXpIl-13" connectable="0" vertex="1">
          <mxGeometry x="1" relative="1" as="geometry">
            <mxPoint x="-10" as="offset" />
          </mxGeometry>
        </mxCell>
        <mxCell id="BamsP_97NYOLKTMDXpIl-16" value="内部账明细" style="whiteSpace=wrap;html=1;align=center;" parent="1" vertex="1">
          <mxGeometry x="670" y="110" width="100" height="40" as="geometry" />
        </mxCell>
        <mxCell id="BamsP_97NYOLKTMDXpIl-17" value="" style="endArrow=none;html=1;rounded=0;" parent="1" source="BamsP_97NYOLKTMDXpIl-33" target="BamsP_97NYOLKTMDXpIl-16" edge="1">
          <mxGeometry relative="1" as="geometry">
            <mxPoint x="440" y="240" as="sourcePoint" />
            <mxPoint x="470" y="270" as="targetPoint" />
          </mxGeometry>
        </mxCell>
        <mxCell id="BamsP_97NYOLKTMDXpIl-18" value="1" style="resizable=0;html=1;align=left;verticalAlign=bottom;" parent="BamsP_97NYOLKTMDXpIl-17" connectable="0" vertex="1">
          <mxGeometry x="-1" relative="1" as="geometry">
            <mxPoint x="10" as="offset" />
          </mxGeometry>
        </mxCell>
        <mxCell id="BamsP_97NYOLKTMDXpIl-19" value="*" style="resizable=0;html=1;align=right;verticalAlign=bottom;" parent="BamsP_97NYOLKTMDXpIl-17" connectable="0" vertex="1">
          <mxGeometry x="1" relative="1" as="geometry">
            <mxPoint x="-10" as="offset" />
          </mxGeometry>
        </mxCell>
        <mxCell id="BamsP_97NYOLKTMDXpIl-20" value="分录" style="whiteSpace=wrap;html=1;align=center;" parent="1" vertex="1">
          <mxGeometry x="270" y="40" width="100" height="40" as="geometry" />
        </mxCell>
        <mxCell id="BamsP_97NYOLKTMDXpIl-21" value="" style="endArrow=none;html=1;rounded=0;" parent="1" source="BamsP_97NYOLKTMDXpIl-20" target="BamsP_97NYOLKTMDXpIl-3" edge="1">
          <mxGeometry relative="1" as="geometry">
            <mxPoint x="100" y="90" as="sourcePoint" />
            <mxPoint x="100" y="170" as="targetPoint" />
          </mxGeometry>
        </mxCell>
        <mxCell id="BamsP_97NYOLKTMDXpIl-22" value="*" style="resizable=0;html=1;align=left;verticalAlign=bottom;" parent="BamsP_97NYOLKTMDXpIl-21" connectable="0" vertex="1">
          <mxGeometry x="-1" relative="1" as="geometry">
            <mxPoint x="10" y="20" as="offset" />
          </mxGeometry>
        </mxCell>
        <mxCell id="BamsP_97NYOLKTMDXpIl-23" value="1" style="resizable=0;html=1;align=right;verticalAlign=bottom;" parent="BamsP_97NYOLKTMDXpIl-21" connectable="0" vertex="1">
          <mxGeometry x="1" relative="1" as="geometry">
            <mxPoint x="-10" as="offset" />
          </mxGeometry>
        </mxCell>
        <mxCell id="BamsP_97NYOLKTMDXpIl-24" value="每日汇总金额" style="whiteSpace=wrap;html=1;align=center;" parent="1" vertex="1">
          <mxGeometry x="40" y="300" width="100" height="40" as="geometry" />
        </mxCell>
        <mxCell id="BamsP_97NYOLKTMDXpIl-25" value="" style="endArrow=none;html=1;rounded=0;exitX=0.5;exitY=1;exitDx=0;exitDy=0;" parent="1" source="BamsP_97NYOLKTMDXpIl-4" target="BamsP_97NYOLKTMDXpIl-24" edge="1">
          <mxGeometry relative="1" as="geometry">
            <mxPoint x="20" y="230" as="sourcePoint" />
            <mxPoint x="100" y="170" as="targetPoint" />
          </mxGeometry>
        </mxCell>
        <mxCell id="BamsP_97NYOLKTMDXpIl-26" value="1" style="resizable=0;html=1;align=left;verticalAlign=bottom;" parent="BamsP_97NYOLKTMDXpIl-25" connectable="0" vertex="1">
          <mxGeometry x="-1" relative="1" as="geometry">
            <mxPoint x="10" y="20" as="offset" />
          </mxGeometry>
        </mxCell>
        <mxCell id="BamsP_97NYOLKTMDXpIl-27" value="*" style="resizable=0;html=1;align=right;verticalAlign=bottom;" parent="BamsP_97NYOLKTMDXpIl-25" connectable="0" vertex="1">
          <mxGeometry x="1" relative="1" as="geometry">
            <mxPoint x="-10" as="offset" />
          </mxGeometry>
        </mxCell>
        <mxCell id="BamsP_97NYOLKTMDXpIl-28" value="子户" style="whiteSpace=wrap;html=1;align=center;" parent="1" vertex="1">
          <mxGeometry x="460" y="300" width="100" height="40" as="geometry" />
        </mxCell>
        <mxCell id="BamsP_97NYOLKTMDXpIl-29" value="" style="endArrow=none;html=1;rounded=0;" parent="1" source="BamsP_97NYOLKTMDXpIl-32" target="BamsP_97NYOLKTMDXpIl-28" edge="1">
          <mxGeometry relative="1" as="geometry">
            <mxPoint x="540" y="310" as="sourcePoint" />
            <mxPoint x="498.33333333333326" y="90" as="targetPoint" />
          </mxGeometry>
        </mxCell>
        <mxCell id="BamsP_97NYOLKTMDXpIl-30" value="1" style="resizable=0;html=1;align=left;verticalAlign=bottom;" parent="BamsP_97NYOLKTMDXpIl-29" connectable="0" vertex="1">
          <mxGeometry x="-1" relative="1" as="geometry">
            <mxPoint x="10" y="20" as="offset" />
          </mxGeometry>
        </mxCell>
        <mxCell id="BamsP_97NYOLKTMDXpIl-31" value="*" style="resizable=0;html=1;align=right;verticalAlign=bottom;" parent="BamsP_97NYOLKTMDXpIl-29" connectable="0" vertex="1">
          <mxGeometry x="1" relative="1" as="geometry">
            <mxPoint x="-10" as="offset" />
          </mxGeometry>
        </mxCell>
        <mxCell id="BamsP_97NYOLKTMDXpIl-32" value="客户账户" style="whiteSpace=wrap;html=1;align=center;" parent="1" vertex="1">
          <mxGeometry x="460" y="210" width="100" height="40" as="geometry" />
        </mxCell>
        <mxCell id="BamsP_97NYOLKTMDXpIl-33" value="内部账户" style="whiteSpace=wrap;html=1;align=center;" parent="1" vertex="1">
          <mxGeometry x="460" y="110" width="100" height="40" as="geometry" />
        </mxCell>
        <mxCell id="BamsP_97NYOLKTMDXpIl-34" value="存管行账户" style="whiteSpace=wrap;html=1;align=center;" parent="1" vertex="1">
          <mxGeometry x="460" y="405" width="100" height="40" as="geometry" />
        </mxCell>
        <mxCell id="BamsP_97NYOLKTMDXpIl-35" value="" style="endArrow=none;html=1;rounded=0;" parent="1" target="BamsP_97NYOLKTMDXpIl-34" edge="1">
          <mxGeometry relative="1" as="geometry">
            <mxPoint x="511" y="340" as="sourcePoint" />
            <mxPoint x="520" y="310" as="targetPoint" />
          </mxGeometry>
        </mxCell>
        <mxCell id="BamsP_97NYOLKTMDXpIl-36" value="1" style="resizable=0;html=1;align=left;verticalAlign=bottom;" parent="BamsP_97NYOLKTMDXpIl-35" connectable="0" vertex="1">
          <mxGeometry x="-1" relative="1" as="geometry">
            <mxPoint x="10" y="20" as="offset" />
          </mxGeometry>
        </mxCell>
        <mxCell id="BamsP_97NYOLKTMDXpIl-37" value="1" style="resizable=0;html=1;align=right;verticalAlign=bottom;" parent="BamsP_97NYOLKTMDXpIl-35" connectable="0" vertex="1">
          <mxGeometry x="1" relative="1" as="geometry">
            <mxPoint x="-10" as="offset" />
          </mxGeometry>
        </mxCell>
        <mxCell id="BamsP_97NYOLKTMDXpIl-38" style="edgeStyle=orthogonalEdgeStyle;rounded=0;orthogonalLoop=1;jettySize=auto;html=1;entryX=0;entryY=0.5;entryDx=0;entryDy=0;" parent="1" source="BamsP_97NYOLKTMDXpIl-40" target="BamsP_97NYOLKTMDXpIl-44" edge="1">
          <mxGeometry relative="1" as="geometry" />
        </mxCell>
        <mxCell id="BamsP_97NYOLKTMDXpIl-39" style="edgeStyle=orthogonalEdgeStyle;rounded=0;orthogonalLoop=1;jettySize=auto;html=1;entryX=0;entryY=0.5;entryDx=0;entryDy=0;" parent="1" source="BamsP_97NYOLKTMDXpIl-40" target="BamsP_97NYOLKTMDXpIl-45" edge="1">
          <mxGeometry relative="1" as="geometry" />
        </mxCell>
        <mxCell id="BamsP_97NYOLKTMDXpIl-40" value="余额" style="whiteSpace=wrap;html=1;align=center;" parent="1" vertex="1">
          <mxGeometry x="670" y="300" width="100" height="40" as="geometry" />
        </mxCell>
        <mxCell id="BamsP_97NYOLKTMDXpIl-41" value="" style="endArrow=none;html=1;rounded=0;" parent="1" source="BamsP_97NYOLKTMDXpIl-28" target="BamsP_97NYOLKTMDXpIl-40" edge="1">
          <mxGeometry relative="1" as="geometry">
            <mxPoint x="520" y="260" as="sourcePoint" />
            <mxPoint x="520" y="310" as="targetPoint" />
          </mxGeometry>
        </mxCell>
        <mxCell id="BamsP_97NYOLKTMDXpIl-42" value="1" style="resizable=0;html=1;align=left;verticalAlign=bottom;" parent="BamsP_97NYOLKTMDXpIl-41" connectable="0" vertex="1">
          <mxGeometry x="-1" relative="1" as="geometry">
            <mxPoint x="10" y="20" as="offset" />
          </mxGeometry>
        </mxCell>
        <mxCell id="BamsP_97NYOLKTMDXpIl-43" value="*" style="resizable=0;html=1;align=right;verticalAlign=bottom;" parent="BamsP_97NYOLKTMDXpIl-41" connectable="0" vertex="1">
          <mxGeometry x="1" relative="1" as="geometry">
            <mxPoint x="-10" as="offset" />
          </mxGeometry>
        </mxCell>
        <mxCell id="BamsP_97NYOLKTMDXpIl-44" value="存管行余额" style="whiteSpace=wrap;html=1;align=center;" parent="1" vertex="1">
          <mxGeometry x="810" y="250" width="100" height="40" as="geometry" />
        </mxCell>
        <mxCell id="BamsP_97NYOLKTMDXpIl-45" value="未入账余额" style="whiteSpace=wrap;html=1;align=center;" parent="1" vertex="1">
          <mxGeometry x="810" y="360" width="100" height="40" as="geometry" />
        </mxCell>
        <mxCell id="BamsP_97NYOLKTMDXpIl-46" value="客户账明细" style="whiteSpace=wrap;html=1;align=center;" parent="1" vertex="1">
          <mxGeometry x="670" y="210" width="100" height="40" as="geometry" />
        </mxCell>
        <mxCell id="BamsP_97NYOLKTMDXpIl-47" value="" style="endArrow=none;html=1;rounded=0;" parent="1" source="BamsP_97NYOLKTMDXpIl-32" target="BamsP_97NYOLKTMDXpIl-46" edge="1">
          <mxGeometry relative="1" as="geometry">
            <mxPoint x="560" y="229.5" as="sourcePoint" />
            <mxPoint x="680" y="229.5" as="targetPoint" />
          </mxGeometry>
        </mxCell>
        <mxCell id="BamsP_97NYOLKTMDXpIl-48" value="1" style="resizable=0;html=1;align=left;verticalAlign=bottom;" parent="BamsP_97NYOLKTMDXpIl-47" connectable="0" vertex="1">
          <mxGeometry x="-1" relative="1" as="geometry">
            <mxPoint x="10" as="offset" />
          </mxGeometry>
        </mxCell>
        <mxCell id="BamsP_97NYOLKTMDXpIl-49" value="*" style="resizable=0;html=1;align=right;verticalAlign=bottom;" parent="BamsP_97NYOLKTMDXpIl-47" connectable="0" vertex="1">
          <mxGeometry x="1" relative="1" as="geometry">
            <mxPoint x="-10" as="offset" />
          </mxGeometry>
        </mxCell>
        <mxCell id="BamsP_97NYOLKTMDXpIl-99" value="外部户" style="swimlane;fontStyle=0;childLayout=stackLayout;horizontal=1;startSize=26;horizontalStack=0;resizeParent=1;resizeParentMax=0;resizeLast=0;collapsible=1;marginBottom=0;" parent="1" vertex="1">
          <mxGeometry x="1170" y="660" width="190" height="338" as="geometry" />
        </mxCell>
        <mxCell id="BamsP_97NYOLKTMDXpIl-100" value="账户号" style="text;strokeColor=none;fillColor=none;align=left;verticalAlign=top;spacingLeft=4;spacingRight=4;overflow=hidden;rotatable=0;points=[[0,0.5],[1,0.5]];portConstraint=eastwest;" parent="BamsP_97NYOLKTMDXpIl-99" vertex="1">
          <mxGeometry y="26" width="190" height="26" as="geometry" />
        </mxCell>
        <mxCell id="BamsP_97NYOLKTMDXpIl-101" value="科目号" style="text;strokeColor=none;fillColor=none;align=left;verticalAlign=top;spacingLeft=4;spacingRight=4;overflow=hidden;rotatable=0;points=[[0,0.5],[1,0.5]];portConstraint=eastwest;" parent="BamsP_97NYOLKTMDXpIl-99" vertex="1">
          <mxGeometry y="52" width="190" height="26" as="geometry" />
        </mxCell>
        <mxCell id="BamsP_97NYOLKTMDXpIl-102" value="账户名称" style="text;strokeColor=none;fillColor=none;align=left;verticalAlign=top;spacingLeft=4;spacingRight=4;overflow=hidden;rotatable=0;points=[[0,0.5],[1,0.5]];portConstraint=eastwest;" parent="BamsP_97NYOLKTMDXpIl-99" vertex="1">
          <mxGeometry y="78" width="190" height="26" as="geometry" />
        </mxCell>
        <mxCell id="BamsP_97NYOLKTMDXpIl-103" value="操作时间" style="text;strokeColor=none;fillColor=none;align=left;verticalAlign=top;spacingLeft=4;spacingRight=4;overflow=hidden;rotatable=0;points=[[0,0.5],[1,0.5]];portConstraint=eastwest;" parent="BamsP_97NYOLKTMDXpIl-99" vertex="1">
          <mxGeometry y="104" width="190" height="26" as="geometry" />
        </mxCell>
        <mxCell id="BamsP_97NYOLKTMDXpIl-110" value="余额方向（1:借 2:贷 0:双向）" style="text;strokeColor=none;fillColor=none;align=left;verticalAlign=top;spacingLeft=4;spacingRight=4;overflow=hidden;rotatable=0;points=[[0,0.5],[1,0.5]];portConstraint=eastwest;" parent="BamsP_97NYOLKTMDXpIl-99" vertex="1">
          <mxGeometry y="130" width="190" height="26" as="geometry" />
        </mxCell>
        <mxCell id="BamsP_97NYOLKTMDXpIl-111" value="币种" style="text;strokeColor=none;fillColor=none;align=left;verticalAlign=top;spacingLeft=4;spacingRight=4;overflow=hidden;rotatable=0;points=[[0,0.5],[1,0.5]];portConstraint=eastwest;" parent="BamsP_97NYOLKTMDXpIl-99" vertex="1">
          <mxGeometry y="156" width="190" height="26" as="geometry" />
        </mxCell>
        <mxCell id="BamsP_97NYOLKTMDXpIl-104" value="会员ID" style="text;strokeColor=none;fillColor=none;align=left;verticalAlign=top;spacingLeft=4;spacingRight=4;overflow=hidden;rotatable=0;points=[[0,0.5],[1,0.5]];portConstraint=eastwest;" parent="BamsP_97NYOLKTMDXpIl-99" vertex="1">
          <mxGeometry y="182" width="190" height="26" as="geometry" />
        </mxCell>
        <mxCell id="BamsP_97NYOLKTMDXpIl-105" value="状态" style="text;strokeColor=none;fillColor=none;align=left;verticalAlign=top;spacingLeft=4;spacingRight=4;overflow=hidden;rotatable=0;points=[[0,0.5],[1,0.5]];portConstraint=eastwest;" parent="BamsP_97NYOLKTMDXpIl-99" vertex="1">
          <mxGeometry y="208" width="190" height="26" as="geometry" />
        </mxCell>
        <mxCell id="BamsP_97NYOLKTMDXpIl-106" value="账户属性（公、私）" style="text;strokeColor=none;fillColor=none;align=left;verticalAlign=top;spacingLeft=4;spacingRight=4;overflow=hidden;rotatable=0;points=[[0,0.5],[1,0.5]];portConstraint=eastwest;" parent="BamsP_97NYOLKTMDXpIl-99" vertex="1">
          <mxGeometry y="234" width="190" height="26" as="geometry" />
        </mxCell>
        <mxCell id="BamsP_97NYOLKTMDXpIl-107" value="账户类型" style="text;strokeColor=none;fillColor=none;align=left;verticalAlign=top;spacingLeft=4;spacingRight=4;overflow=hidden;rotatable=0;points=[[0,0.5],[1,0.5]];portConstraint=eastwest;" parent="BamsP_97NYOLKTMDXpIl-99" vertex="1">
          <mxGeometry y="260" width="190" height="26" as="geometry" />
        </mxCell>
        <mxCell id="BamsP_97NYOLKTMDXpIl-112" value="上次修改时间" style="text;strokeColor=none;fillColor=none;align=left;verticalAlign=top;spacingLeft=4;spacingRight=4;overflow=hidden;rotatable=0;points=[[0,0.5],[1,0.5]];portConstraint=eastwest;" parent="BamsP_97NYOLKTMDXpIl-99" vertex="1">
          <mxGeometry y="286" width="190" height="26" as="geometry" />
        </mxCell>
        <mxCell id="BamsP_97NYOLKTMDXpIl-113" value="请求号" style="text;strokeColor=none;fillColor=none;align=left;verticalAlign=top;spacingLeft=4;spacingRight=4;overflow=hidden;rotatable=0;points=[[0,0.5],[1,0.5]];portConstraint=eastwest;" parent="BamsP_97NYOLKTMDXpIl-99" vertex="1">
          <mxGeometry y="312" width="190" height="26" as="geometry" />
        </mxCell>
        <mxCell id="BamsP_97NYOLKTMDXpIl-115" value="账户类型" style="swimlane;fontStyle=0;childLayout=stackLayout;horizontal=1;startSize=26;horizontalStack=0;resizeParent=1;resizeParentMax=0;resizeLast=0;collapsible=1;marginBottom=0;" parent="1" vertex="1">
          <mxGeometry x="895" y="900" width="140" height="104" as="geometry" />
        </mxCell>
        <mxCell id="BamsP_97NYOLKTMDXpIl-116" value="基本户" style="text;strokeColor=none;fillColor=none;align=left;verticalAlign=top;spacingLeft=4;spacingRight=4;overflow=hidden;rotatable=0;points=[[0,0.5],[1,0.5]];portConstraint=eastwest;" parent="BamsP_97NYOLKTMDXpIl-115" vertex="1">
          <mxGeometry y="26" width="140" height="26" as="geometry" />
        </mxCell>
        <mxCell id="BamsP_97NYOLKTMDXpIl-117" value="一般户" style="text;strokeColor=none;fillColor=none;align=left;verticalAlign=top;spacingLeft=4;spacingRight=4;overflow=hidden;rotatable=0;points=[[0,0.5],[1,0.5]];portConstraint=eastwest;" parent="BamsP_97NYOLKTMDXpIl-115" vertex="1">
          <mxGeometry y="52" width="140" height="26" as="geometry" />
        </mxCell>
        <mxCell id="BamsP_97NYOLKTMDXpIl-118" value="专用户" style="text;strokeColor=none;fillColor=none;align=left;verticalAlign=top;spacingLeft=4;spacingRight=4;overflow=hidden;rotatable=0;points=[[0,0.5],[1,0.5]];portConstraint=eastwest;" parent="BamsP_97NYOLKTMDXpIl-115" vertex="1">
          <mxGeometry y="78" width="140" height="26" as="geometry" />
        </mxCell>
        <mxCell id="BamsP_97NYOLKTMDXpIl-120" value="账户分户账" style="shape=table;startSize=30;container=1;collapsible=1;childLayout=tableLayout;fixedRows=1;rowLines=0;fontStyle=1;align=center;resizeLast=1;" parent="1" vertex="1">
          <mxGeometry x="840" y="620" width="250" height="250" as="geometry" />
        </mxCell>
        <mxCell id="BamsP_97NYOLKTMDXpIl-121" value="" style="shape=partialRectangle;collapsible=0;dropTarget=0;pointerEvents=0;fillColor=none;points=[[0,0.5],[1,0.5]];portConstraint=eastwest;top=0;left=0;right=0;bottom=0;" parent="BamsP_97NYOLKTMDXpIl-120" vertex="1">
          <mxGeometry y="30" width="250" height="30" as="geometry" />
        </mxCell>
        <mxCell id="BamsP_97NYOLKTMDXpIl-122" value="" style="shape=partialRectangle;overflow=hidden;connectable=0;fillColor=none;top=0;left=0;bottom=0;right=0;" parent="BamsP_97NYOLKTMDXpIl-121" vertex="1">
          <mxGeometry width="20" height="30" as="geometry" />
        </mxCell>
        <mxCell id="BamsP_97NYOLKTMDXpIl-123" value="账户号" style="shape=partialRectangle;overflow=hidden;connectable=0;fillColor=none;top=0;left=0;bottom=0;right=0;align=left;spacingLeft=6;" parent="BamsP_97NYOLKTMDXpIl-121" vertex="1">
          <mxGeometry x="20" width="230" height="30" as="geometry" />
        </mxCell>
        <mxCell id="BamsP_97NYOLKTMDXpIl-124" value="" style="shape=partialRectangle;collapsible=0;dropTarget=0;pointerEvents=0;fillColor=none;points=[[0,0.5],[1,0.5]];portConstraint=eastwest;top=0;left=0;right=0;bottom=0;" parent="BamsP_97NYOLKTMDXpIl-120" vertex="1">
          <mxGeometry y="60" width="250" height="30" as="geometry" />
        </mxCell>
        <mxCell id="BamsP_97NYOLKTMDXpIl-125" value="" style="shape=partialRectangle;overflow=hidden;connectable=0;fillColor=none;top=0;left=0;bottom=0;right=0;" parent="BamsP_97NYOLKTMDXpIl-124" vertex="1">
          <mxGeometry width="20" height="30" as="geometry" />
        </mxCell>
        <mxCell id="BamsP_97NYOLKTMDXpIl-126" value="余额" style="shape=partialRectangle;overflow=hidden;connectable=0;fillColor=none;top=0;left=0;bottom=0;right=0;align=left;spacingLeft=6;" parent="BamsP_97NYOLKTMDXpIl-124" vertex="1">
          <mxGeometry x="20" width="230" height="30" as="geometry" />
        </mxCell>
        <mxCell id="BamsP_97NYOLKTMDXpIl-127" value="" style="shape=partialRectangle;collapsible=0;dropTarget=0;pointerEvents=0;fillColor=none;points=[[0,0.5],[1,0.5]];portConstraint=eastwest;top=0;left=0;right=0;bottom=0;" parent="BamsP_97NYOLKTMDXpIl-120" vertex="1">
          <mxGeometry y="90" width="250" height="30" as="geometry" />
        </mxCell>
        <mxCell id="BamsP_97NYOLKTMDXpIl-128" value="" style="shape=partialRectangle;overflow=hidden;connectable=0;fillColor=none;top=0;left=0;bottom=0;right=0;" parent="BamsP_97NYOLKTMDXpIl-127" vertex="1">
          <mxGeometry width="20" height="30" as="geometry" />
        </mxCell>
        <mxCell id="BamsP_97NYOLKTMDXpIl-129" value="资金属性（DR:借记 CR:贷记 FR:冻结）" style="shape=partialRectangle;overflow=hidden;connectable=0;fillColor=none;top=0;left=0;bottom=0;right=0;align=left;spacingLeft=6;" parent="BamsP_97NYOLKTMDXpIl-127" vertex="1">
          <mxGeometry x="20" width="230" height="30" as="geometry" />
        </mxCell>
        <mxCell id="BamsP_97NYOLKTMDXpIl-130" value="" style="shape=partialRectangle;collapsible=0;dropTarget=0;pointerEvents=0;fillColor=none;points=[[0,0.5],[1,0.5]];portConstraint=eastwest;top=0;left=0;right=0;bottom=0;" parent="BamsP_97NYOLKTMDXpIl-120" vertex="1">
          <mxGeometry y="120" width="250" height="30" as="geometry" />
        </mxCell>
        <mxCell id="BamsP_97NYOLKTMDXpIl-131" value="" style="shape=partialRectangle;overflow=hidden;connectable=0;fillColor=none;top=0;left=0;bottom=0;right=0;" parent="BamsP_97NYOLKTMDXpIl-130" vertex="1">
          <mxGeometry width="20" height="30" as="geometry" />
        </mxCell>
        <mxCell id="BamsP_97NYOLKTMDXpIl-132" value="余额类型" style="shape=partialRectangle;overflow=hidden;connectable=0;fillColor=none;top=0;left=0;bottom=0;right=0;align=left;spacingLeft=6;" parent="BamsP_97NYOLKTMDXpIl-130" vertex="1">
          <mxGeometry x="20" width="230" height="30" as="geometry" />
        </mxCell>
        <mxCell id="BamsP_97NYOLKTMDXpIl-133" value="" style="shape=partialRectangle;collapsible=0;dropTarget=0;pointerEvents=0;fillColor=none;points=[[0,0.5],[1,0.5]];portConstraint=eastwest;top=0;left=0;right=0;bottom=0;" parent="BamsP_97NYOLKTMDXpIl-120" vertex="1">
          <mxGeometry y="150" width="250" height="30" as="geometry" />
        </mxCell>
        <mxCell id="BamsP_97NYOLKTMDXpIl-134" value="" style="shape=partialRectangle;overflow=hidden;connectable=0;fillColor=none;top=0;left=0;bottom=0;right=0;" parent="BamsP_97NYOLKTMDXpIl-133" vertex="1">
          <mxGeometry width="20" height="30" as="geometry" />
        </mxCell>
        <mxCell id="BamsP_97NYOLKTMDXpIl-135" value="备注" style="shape=partialRectangle;overflow=hidden;connectable=0;fillColor=none;top=0;left=0;bottom=0;right=0;align=left;spacingLeft=6;" parent="BamsP_97NYOLKTMDXpIl-133" vertex="1">
          <mxGeometry x="20" width="230" height="30" as="geometry" />
        </mxCell>
        <mxCell id="BamsP_97NYOLKTMDXpIl-136" value="" style="shape=partialRectangle;collapsible=0;dropTarget=0;pointerEvents=0;fillColor=none;points=[[0,0.5],[1,0.5]];portConstraint=eastwest;top=0;left=0;right=0;bottom=0;" parent="BamsP_97NYOLKTMDXpIl-120" vertex="1">
          <mxGeometry y="180" width="250" height="30" as="geometry" />
        </mxCell>
        <mxCell id="BamsP_97NYOLKTMDXpIl-137" value="" style="shape=partialRectangle;overflow=hidden;connectable=0;fillColor=none;top=0;left=0;bottom=0;right=0;" parent="BamsP_97NYOLKTMDXpIl-136" vertex="1">
          <mxGeometry width="20" height="30" as="geometry" />
        </mxCell>
        <mxCell id="BamsP_97NYOLKTMDXpIl-138" value="更新时间" style="shape=partialRectangle;overflow=hidden;connectable=0;fillColor=none;top=0;left=0;bottom=0;right=0;align=left;spacingLeft=6;" parent="BamsP_97NYOLKTMDXpIl-136" vertex="1">
          <mxGeometry x="20" width="230" height="30" as="geometry" />
        </mxCell>
        <mxCell id="BamsP_97NYOLKTMDXpIl-139" value="" style="shape=partialRectangle;collapsible=0;dropTarget=0;pointerEvents=0;fillColor=none;points=[[0,0.5],[1,0.5]];portConstraint=eastwest;top=0;left=0;right=0;bottom=0;" parent="BamsP_97NYOLKTMDXpIl-120" vertex="1">
          <mxGeometry y="210" width="250" height="30" as="geometry" />
        </mxCell>
        <mxCell id="BamsP_97NYOLKTMDXpIl-140" value="" style="shape=partialRectangle;overflow=hidden;connectable=0;fillColor=none;top=0;left=0;bottom=0;right=0;" parent="BamsP_97NYOLKTMDXpIl-139" vertex="1">
          <mxGeometry width="20" height="30" as="geometry" />
        </mxCell>
        <mxCell id="BamsP_97NYOLKTMDXpIl-141" value="创建时间" style="shape=partialRectangle;overflow=hidden;connectable=0;fillColor=none;top=0;left=0;bottom=0;right=0;align=left;spacingLeft=6;" parent="BamsP_97NYOLKTMDXpIl-139" vertex="1">
          <mxGeometry x="20" width="230" height="30" as="geometry" />
        </mxCell>
        <mxCell id="BamsP_97NYOLKTMDXpIl-142" value="" style="edgeStyle=entityRelationEdgeStyle;fontSize=12;html=1;endArrow=ERmandOne;startArrow=ERmandOne;" parent="1" source="BamsP_97NYOLKTMDXpIl-100" target="BamsP_97NYOLKTMDXpIl-120" edge="1">
          <mxGeometry width="100" height="100" relative="1" as="geometry">
            <mxPoint x="1400" y="740" as="sourcePoint" />
            <mxPoint x="1500" y="640" as="targetPoint" />
          </mxGeometry>
        </mxCell>
        <mxCell id="BamsP_97NYOLKTMDXpIl-143" value="账户科目" style="shape=table;startSize=30;container=1;collapsible=1;childLayout=tableLayout;fixedRows=1;rowLines=0;fontStyle=1;align=center;resizeLast=1;" parent="1" vertex="1">
          <mxGeometry x="1440" y="250" width="320" height="430" as="geometry" />
        </mxCell>
        <mxCell id="BamsP_97NYOLKTMDXpIl-144" value="" style="shape=partialRectangle;collapsible=0;dropTarget=0;pointerEvents=0;fillColor=none;points=[[0,0.5],[1,0.5]];portConstraint=eastwest;top=0;left=0;right=0;bottom=0;" parent="BamsP_97NYOLKTMDXpIl-143" vertex="1">
          <mxGeometry y="30" width="320" height="30" as="geometry" />
        </mxCell>
        <mxCell id="BamsP_97NYOLKTMDXpIl-145" value="" style="shape=partialRectangle;overflow=hidden;connectable=0;fillColor=none;top=0;left=0;bottom=0;right=0;" parent="BamsP_97NYOLKTMDXpIl-144" vertex="1">
          <mxGeometry width="30" height="30" as="geometry" />
        </mxCell>
        <mxCell id="BamsP_97NYOLKTMDXpIl-146" value="主键" style="shape=partialRectangle;overflow=hidden;connectable=0;fillColor=none;top=0;left=0;bottom=0;right=0;align=left;spacingLeft=6;" parent="BamsP_97NYOLKTMDXpIl-144" vertex="1">
          <mxGeometry x="30" width="290" height="30" as="geometry" />
        </mxCell>
        <mxCell id="BamsP_97NYOLKTMDXpIl-147" value="" style="shape=partialRectangle;collapsible=0;dropTarget=0;pointerEvents=0;fillColor=none;points=[[0,0.5],[1,0.5]];portConstraint=eastwest;top=0;left=0;right=0;bottom=0;" parent="BamsP_97NYOLKTMDXpIl-143" vertex="1">
          <mxGeometry y="60" width="320" height="30" as="geometry" />
        </mxCell>
        <mxCell id="BamsP_97NYOLKTMDXpIl-148" value="" style="shape=partialRectangle;overflow=hidden;connectable=0;fillColor=none;top=0;left=0;bottom=0;right=0;" parent="BamsP_97NYOLKTMDXpIl-147" vertex="1">
          <mxGeometry width="30" height="30" as="geometry" />
        </mxCell>
        <mxCell id="BamsP_97NYOLKTMDXpIl-149" value="科目代码" style="shape=partialRectangle;overflow=hidden;connectable=0;fillColor=none;top=0;left=0;bottom=0;right=0;align=left;spacingLeft=6;" parent="BamsP_97NYOLKTMDXpIl-147" vertex="1">
          <mxGeometry x="30" width="290" height="30" as="geometry" />
        </mxCell>
        <mxCell id="BamsP_97NYOLKTMDXpIl-150" value="" style="shape=partialRectangle;collapsible=0;dropTarget=0;pointerEvents=0;fillColor=none;points=[[0,0.5],[1,0.5]];portConstraint=eastwest;top=0;left=0;right=0;bottom=0;" parent="BamsP_97NYOLKTMDXpIl-143" vertex="1">
          <mxGeometry y="90" width="320" height="30" as="geometry" />
        </mxCell>
        <mxCell id="BamsP_97NYOLKTMDXpIl-151" value="" style="shape=partialRectangle;overflow=hidden;connectable=0;fillColor=none;top=0;left=0;bottom=0;right=0;" parent="BamsP_97NYOLKTMDXpIl-150" vertex="1">
          <mxGeometry width="30" height="30" as="geometry" />
        </mxCell>
        <mxCell id="BamsP_97NYOLKTMDXpIl-152" value="科目名称" style="shape=partialRectangle;overflow=hidden;connectable=0;fillColor=none;top=0;left=0;bottom=0;right=0;align=left;spacingLeft=6;" parent="BamsP_97NYOLKTMDXpIl-150" vertex="1">
          <mxGeometry x="30" width="290" height="30" as="geometry" />
        </mxCell>
        <mxCell id="BamsP_97NYOLKTMDXpIl-153" value="" style="shape=partialRectangle;collapsible=0;dropTarget=0;pointerEvents=0;fillColor=none;points=[[0,0.5],[1,0.5]];portConstraint=eastwest;top=0;left=0;right=0;bottom=0;" parent="BamsP_97NYOLKTMDXpIl-143" vertex="1">
          <mxGeometry y="120" width="320" height="30" as="geometry" />
        </mxCell>
        <mxCell id="BamsP_97NYOLKTMDXpIl-154" value="" style="shape=partialRectangle;overflow=hidden;connectable=0;fillColor=none;top=0;left=0;bottom=0;right=0;" parent="BamsP_97NYOLKTMDXpIl-153" vertex="1">
          <mxGeometry width="30" height="30" as="geometry" />
        </mxCell>
        <mxCell id="BamsP_97NYOLKTMDXpIl-155" value="科目级别" style="shape=partialRectangle;overflow=hidden;connectable=0;fillColor=none;top=0;left=0;bottom=0;right=0;align=left;spacingLeft=6;" parent="BamsP_97NYOLKTMDXpIl-153" vertex="1">
          <mxGeometry x="30" width="290" height="30" as="geometry" />
        </mxCell>
        <mxCell id="BamsP_97NYOLKTMDXpIl-156" value="" style="shape=partialRectangle;collapsible=0;dropTarget=0;pointerEvents=0;fillColor=none;points=[[0,0.5],[1,0.5]];portConstraint=eastwest;top=0;left=0;right=0;bottom=0;" parent="BamsP_97NYOLKTMDXpIl-143" vertex="1">
          <mxGeometry y="150" width="320" height="30" as="geometry" />
        </mxCell>
        <mxCell id="BamsP_97NYOLKTMDXpIl-157" value="" style="shape=partialRectangle;overflow=hidden;connectable=0;fillColor=none;top=0;left=0;bottom=0;right=0;" parent="BamsP_97NYOLKTMDXpIl-156" vertex="1">
          <mxGeometry width="30" height="30" as="geometry" />
        </mxCell>
        <mxCell id="BamsP_97NYOLKTMDXpIl-158" value="父科目代码" style="shape=partialRectangle;overflow=hidden;connectable=0;fillColor=none;top=0;left=0;bottom=0;right=0;align=left;spacingLeft=6;" parent="BamsP_97NYOLKTMDXpIl-156" vertex="1">
          <mxGeometry x="30" width="290" height="30" as="geometry" />
        </mxCell>
        <mxCell id="BamsP_97NYOLKTMDXpIl-159" value="" style="shape=partialRectangle;collapsible=0;dropTarget=0;pointerEvents=0;fillColor=none;points=[[0,0.5],[1,0.5]];portConstraint=eastwest;top=0;left=0;right=0;bottom=0;" parent="BamsP_97NYOLKTMDXpIl-143" vertex="1">
          <mxGeometry y="180" width="320" height="30" as="geometry" />
        </mxCell>
        <mxCell id="BamsP_97NYOLKTMDXpIl-160" value="" style="shape=partialRectangle;overflow=hidden;connectable=0;fillColor=none;top=0;left=0;bottom=0;right=0;" parent="BamsP_97NYOLKTMDXpIl-159" vertex="1">
          <mxGeometry width="30" height="30" as="geometry" />
        </mxCell>
        <mxCell id="BamsP_97NYOLKTMDXpIl-161" value="是否叶子节点" style="shape=partialRectangle;overflow=hidden;connectable=0;fillColor=none;top=0;left=0;bottom=0;right=0;align=left;spacingLeft=6;" parent="BamsP_97NYOLKTMDXpIl-159" vertex="1">
          <mxGeometry x="30" width="290" height="30" as="geometry" />
        </mxCell>
        <mxCell id="BamsP_97NYOLKTMDXpIl-162" value="" style="shape=partialRectangle;collapsible=0;dropTarget=0;pointerEvents=0;fillColor=none;points=[[0,0.5],[1,0.5]];portConstraint=eastwest;top=0;left=0;right=0;bottom=0;" parent="BamsP_97NYOLKTMDXpIl-143" vertex="1">
          <mxGeometry y="210" width="320" height="30" as="geometry" />
        </mxCell>
        <mxCell id="BamsP_97NYOLKTMDXpIl-163" value="" style="shape=partialRectangle;overflow=hidden;connectable=0;fillColor=none;top=0;left=0;bottom=0;right=0;" parent="BamsP_97NYOLKTMDXpIl-162" vertex="1">
          <mxGeometry width="30" height="30" as="geometry" />
        </mxCell>
        <mxCell id="BamsP_97NYOLKTMDXpIl-164" value="类型：1（资产类）；2（负债类）；3(所有者权益)；4（共同类）5(损益类)&#39;" style="shape=partialRectangle;overflow=hidden;connectable=0;fillColor=none;top=0;left=0;bottom=0;right=0;align=left;spacingLeft=6;" parent="BamsP_97NYOLKTMDXpIl-162" vertex="1">
          <mxGeometry x="30" width="290" height="30" as="geometry" />
        </mxCell>
        <mxCell id="BamsP_97NYOLKTMDXpIl-165" value="" style="shape=partialRectangle;collapsible=0;dropTarget=0;pointerEvents=0;fillColor=none;points=[[0,0.5],[1,0.5]];portConstraint=eastwest;top=0;left=0;right=0;bottom=0;" parent="BamsP_97NYOLKTMDXpIl-143" vertex="1">
          <mxGeometry y="240" width="320" height="30" as="geometry" />
        </mxCell>
        <mxCell id="BamsP_97NYOLKTMDXpIl-166" value="" style="shape=partialRectangle;overflow=hidden;connectable=0;fillColor=none;top=0;left=0;bottom=0;right=0;" parent="BamsP_97NYOLKTMDXpIl-165" vertex="1">
          <mxGeometry width="30" height="30" as="geometry" />
        </mxCell>
        <mxCell id="BamsP_97NYOLKTMDXpIl-167" value="余额方向（1:借 2:贷 0:双向）" style="shape=partialRectangle;overflow=hidden;connectable=0;fillColor=none;top=0;left=0;bottom=0;right=0;align=left;spacingLeft=6;" parent="BamsP_97NYOLKTMDXpIl-165" vertex="1">
          <mxGeometry x="30" width="290" height="30" as="geometry" />
        </mxCell>
        <mxCell id="BamsP_97NYOLKTMDXpIl-168" value="" style="shape=partialRectangle;collapsible=0;dropTarget=0;pointerEvents=0;fillColor=none;points=[[0,0.5],[1,0.5]];portConstraint=eastwest;top=0;left=0;right=0;bottom=0;" parent="BamsP_97NYOLKTMDXpIl-143" vertex="1">
          <mxGeometry y="270" width="320" height="30" as="geometry" />
        </mxCell>
        <mxCell id="BamsP_97NYOLKTMDXpIl-169" value="" style="shape=partialRectangle;overflow=hidden;connectable=0;fillColor=none;top=0;left=0;bottom=0;right=0;" parent="BamsP_97NYOLKTMDXpIl-168" vertex="1">
          <mxGeometry width="30" height="30" as="geometry" />
        </mxCell>
        <mxCell id="BamsP_97NYOLKTMDXpIl-170" value="状态：Y（有效）；N（无效）" style="shape=partialRectangle;overflow=hidden;connectable=0;fillColor=none;top=0;left=0;bottom=0;right=0;align=left;spacingLeft=6;" parent="BamsP_97NYOLKTMDXpIl-168" vertex="1">
          <mxGeometry x="30" width="290" height="30" as="geometry" />
        </mxCell>
        <mxCell id="BamsP_97NYOLKTMDXpIl-171" value="" style="shape=partialRectangle;collapsible=0;dropTarget=0;pointerEvents=0;fillColor=none;points=[[0,0.5],[1,0.5]];portConstraint=eastwest;top=0;left=0;right=0;bottom=0;" parent="BamsP_97NYOLKTMDXpIl-143" vertex="1">
          <mxGeometry y="300" width="320" height="30" as="geometry" />
        </mxCell>
        <mxCell id="BamsP_97NYOLKTMDXpIl-172" value="" style="shape=partialRectangle;overflow=hidden;connectable=0;fillColor=none;top=0;left=0;bottom=0;right=0;" parent="BamsP_97NYOLKTMDXpIl-171" vertex="1">
          <mxGeometry width="30" height="30" as="geometry" />
        </mxCell>
        <mxCell id="BamsP_97NYOLKTMDXpIl-173" value="更新时间" style="shape=partialRectangle;overflow=hidden;connectable=0;fillColor=none;top=0;left=0;bottom=0;right=0;align=left;spacingLeft=6;" parent="BamsP_97NYOLKTMDXpIl-171" vertex="1">
          <mxGeometry x="30" width="290" height="30" as="geometry" />
        </mxCell>
        <mxCell id="BamsP_97NYOLKTMDXpIl-174" value="" style="shape=partialRectangle;collapsible=0;dropTarget=0;pointerEvents=0;fillColor=none;points=[[0,0.5],[1,0.5]];portConstraint=eastwest;top=0;left=0;right=0;bottom=0;" parent="BamsP_97NYOLKTMDXpIl-143" vertex="1">
          <mxGeometry y="330" width="320" height="30" as="geometry" />
        </mxCell>
        <mxCell id="BamsP_97NYOLKTMDXpIl-175" value="" style="shape=partialRectangle;overflow=hidden;connectable=0;fillColor=none;top=0;left=0;bottom=0;right=0;" parent="BamsP_97NYOLKTMDXpIl-174" vertex="1">
          <mxGeometry width="30" height="30" as="geometry" />
        </mxCell>
        <mxCell id="BamsP_97NYOLKTMDXpIl-176" value="创建时间" style="shape=partialRectangle;overflow=hidden;connectable=0;fillColor=none;top=0;left=0;bottom=0;right=0;align=left;spacingLeft=6;" parent="BamsP_97NYOLKTMDXpIl-174" vertex="1">
          <mxGeometry x="30" width="290" height="30" as="geometry" />
        </mxCell>
        <mxCell id="BamsP_97NYOLKTMDXpIl-177" value="" style="shape=partialRectangle;collapsible=0;dropTarget=0;pointerEvents=0;fillColor=none;points=[[0,0.5],[1,0.5]];portConstraint=eastwest;top=0;left=0;right=0;bottom=0;" parent="BamsP_97NYOLKTMDXpIl-143" vertex="1">
          <mxGeometry y="360" width="320" height="30" as="geometry" />
        </mxCell>
        <mxCell id="BamsP_97NYOLKTMDXpIl-178" value="" style="shape=partialRectangle;overflow=hidden;connectable=0;fillColor=none;top=0;left=0;bottom=0;right=0;" parent="BamsP_97NYOLKTMDXpIl-177" vertex="1">
          <mxGeometry width="30" height="30" as="geometry" />
        </mxCell>
        <mxCell id="BamsP_97NYOLKTMDXpIl-179" value="备注" style="shape=partialRectangle;overflow=hidden;connectable=0;fillColor=none;top=0;left=0;bottom=0;right=0;align=left;spacingLeft=6;" parent="BamsP_97NYOLKTMDXpIl-177" vertex="1">
          <mxGeometry x="30" width="290" height="30" as="geometry" />
        </mxCell>
        <mxCell id="BamsP_97NYOLKTMDXpIl-180" value="" style="shape=partialRectangle;collapsible=0;dropTarget=0;pointerEvents=0;fillColor=none;points=[[0,0.5],[1,0.5]];portConstraint=eastwest;top=0;left=0;right=0;bottom=0;" parent="BamsP_97NYOLKTMDXpIl-143" vertex="1">
          <mxGeometry y="390" width="320" height="30" as="geometry" />
        </mxCell>
        <mxCell id="BamsP_97NYOLKTMDXpIl-181" value="" style="shape=partialRectangle;overflow=hidden;connectable=0;fillColor=none;top=0;left=0;bottom=0;right=0;" parent="BamsP_97NYOLKTMDXpIl-180" vertex="1">
          <mxGeometry width="30" height="30" as="geometry" />
        </mxCell>
        <mxCell id="BamsP_97NYOLKTMDXpIl-182" value="科目范围：1.内部科目;2,外部科目" style="shape=partialRectangle;overflow=hidden;connectable=0;fillColor=none;top=0;left=0;bottom=0;right=0;align=left;spacingLeft=6;" parent="BamsP_97NYOLKTMDXpIl-180" vertex="1">
          <mxGeometry x="30" width="290" height="30" as="geometry" />
        </mxCell>
        <mxCell id="BamsP_97NYOLKTMDXpIl-190" value="" style="edgeStyle=entityRelationEdgeStyle;fontSize=12;html=1;endArrow=ERmandOne;startArrow=ERmandOne;" parent="1" source="BamsP_97NYOLKTMDXpIl-115" target="BamsP_97NYOLKTMDXpIl-107" edge="1">
          <mxGeometry width="100" height="100" relative="1" as="geometry">
            <mxPoint x="1050" y="1000" as="sourcePoint" />
            <mxPoint x="1150" y="900" as="targetPoint" />
          </mxGeometry>
        </mxCell>
        <mxCell id="BamsP_97NYOLKTMDXpIl-191" value="" style="edgeStyle=entityRelationEdgeStyle;fontSize=12;html=1;endArrow=ERmandOne;startArrow=ERmandOne;" parent="1" source="BamsP_97NYOLKTMDXpIl-101" target="BamsP_97NYOLKTMDXpIl-147" edge="1">
          <mxGeometry width="100" height="100" relative="1" as="geometry">
            <mxPoint x="1350" y="670" as="sourcePoint" />
            <mxPoint x="1450" y="570" as="targetPoint" />
          </mxGeometry>
        </mxCell>
        <mxCell id="BamsP_97NYOLKTMDXpIl-192" value="&quot;t_dpm_inner_account&quot;" style="shape=table;startSize=30;container=1;collapsible=1;childLayout=tableLayout;fixedRows=1;rowLines=0;fontStyle=1;align=center;resizeLast=1;" parent="1" vertex="1">
          <mxGeometry x="1570" y="730" width="320" height="310" as="geometry" />
        </mxCell>
        <mxCell id="BamsP_97NYOLKTMDXpIl-193" value="" style="shape=partialRectangle;collapsible=0;dropTarget=0;pointerEvents=0;fillColor=none;points=[[0,0.5],[1,0.5]];portConstraint=eastwest;top=0;left=0;right=0;bottom=0;" parent="BamsP_97NYOLKTMDXpIl-192" vertex="1">
          <mxGeometry y="30" width="320" height="30" as="geometry" />
        </mxCell>
        <mxCell id="BamsP_97NYOLKTMDXpIl-194" value="" style="shape=partialRectangle;overflow=hidden;connectable=0;fillColor=none;top=0;left=0;bottom=0;right=0;" parent="BamsP_97NYOLKTMDXpIl-193" vertex="1">
          <mxGeometry width="30" height="30" as="geometry" />
        </mxCell>
        <mxCell id="BamsP_97NYOLKTMDXpIl-195" value="&quot;ACCOUNT_NO&quot; varchar(32) NOT NULL COMMENT &#39;帐号号&#39;" style="shape=partialRectangle;overflow=hidden;connectable=0;fillColor=none;top=0;left=0;bottom=0;right=0;align=left;spacingLeft=6;" parent="BamsP_97NYOLKTMDXpIl-193" vertex="1">
          <mxGeometry x="30" width="290" height="30" as="geometry" />
        </mxCell>
        <mxCell id="BamsP_97NYOLKTMDXpIl-196" value="" style="shape=partialRectangle;collapsible=0;dropTarget=0;pointerEvents=0;fillColor=none;points=[[0,0.5],[1,0.5]];portConstraint=eastwest;top=0;left=0;right=0;bottom=0;" parent="BamsP_97NYOLKTMDXpIl-192" vertex="1">
          <mxGeometry y="60" width="320" height="30" as="geometry" />
        </mxCell>
        <mxCell id="BamsP_97NYOLKTMDXpIl-197" value="" style="shape=partialRectangle;overflow=hidden;connectable=0;fillColor=none;top=0;left=0;bottom=0;right=0;" parent="BamsP_97NYOLKTMDXpIl-196" vertex="1">
          <mxGeometry width="30" height="30" as="geometry" />
        </mxCell>
        <mxCell id="BamsP_97NYOLKTMDXpIl-198" value="&quot;ACCOUNT_TITLE_NO&quot; varchar(32) DEFAULT NULL COMMENT &#39;科目号&#39;" style="shape=partialRectangle;overflow=hidden;connectable=0;fillColor=none;top=0;left=0;bottom=0;right=0;align=left;spacingLeft=6;" parent="BamsP_97NYOLKTMDXpIl-196" vertex="1">
          <mxGeometry x="30" width="290" height="30" as="geometry" />
        </mxCell>
        <mxCell id="BamsP_97NYOLKTMDXpIl-199" value="" style="shape=partialRectangle;collapsible=0;dropTarget=0;pointerEvents=0;fillColor=none;points=[[0,0.5],[1,0.5]];portConstraint=eastwest;top=0;left=0;right=0;bottom=0;" parent="BamsP_97NYOLKTMDXpIl-192" vertex="1">
          <mxGeometry y="90" width="320" height="30" as="geometry" />
        </mxCell>
        <mxCell id="BamsP_97NYOLKTMDXpIl-200" value="" style="shape=partialRectangle;overflow=hidden;connectable=0;fillColor=none;top=0;left=0;bottom=0;right=0;" parent="BamsP_97NYOLKTMDXpIl-199" vertex="1">
          <mxGeometry width="30" height="30" as="geometry" />
        </mxCell>
        <mxCell id="BamsP_97NYOLKTMDXpIl-201" value="&quot;ACCOUNT_NAME&quot; varchar(64) DEFAULT NULL COMMENT &#39;账户名称&#39;" style="shape=partialRectangle;overflow=hidden;connectable=0;fillColor=none;top=0;left=0;bottom=0;right=0;align=left;spacingLeft=6;" parent="BamsP_97NYOLKTMDXpIl-199" vertex="1">
          <mxGeometry x="30" width="290" height="30" as="geometry" />
        </mxCell>
        <mxCell id="BamsP_97NYOLKTMDXpIl-202" value="" style="shape=partialRectangle;collapsible=0;dropTarget=0;pointerEvents=0;fillColor=none;points=[[0,0.5],[1,0.5]];portConstraint=eastwest;top=0;left=0;right=0;bottom=0;" parent="BamsP_97NYOLKTMDXpIl-192" vertex="1">
          <mxGeometry y="120" width="320" height="30" as="geometry" />
        </mxCell>
        <mxCell id="BamsP_97NYOLKTMDXpIl-203" value="" style="shape=partialRectangle;overflow=hidden;connectable=0;fillColor=none;top=0;left=0;bottom=0;right=0;" parent="BamsP_97NYOLKTMDXpIl-202" vertex="1">
          <mxGeometry width="30" height="30" as="geometry" />
        </mxCell>
        <mxCell id="BamsP_97NYOLKTMDXpIl-204" value="&quot;OPEN_DATE&quot; datetime DEFAULT NULL COMMENT &#39;开户日期(创建时间)&#39;" style="shape=partialRectangle;overflow=hidden;connectable=0;fillColor=none;top=0;left=0;bottom=0;right=0;align=left;spacingLeft=6;" parent="BamsP_97NYOLKTMDXpIl-202" vertex="1">
          <mxGeometry x="30" width="290" height="30" as="geometry" />
        </mxCell>
        <mxCell id="BamsP_97NYOLKTMDXpIl-205" value="" style="shape=partialRectangle;collapsible=0;dropTarget=0;pointerEvents=0;fillColor=none;points=[[0,0.5],[1,0.5]];portConstraint=eastwest;top=0;left=0;right=0;bottom=0;" parent="BamsP_97NYOLKTMDXpIl-192" vertex="1">
          <mxGeometry y="150" width="320" height="30" as="geometry" />
        </mxCell>
        <mxCell id="BamsP_97NYOLKTMDXpIl-206" value="" style="shape=partialRectangle;overflow=hidden;connectable=0;fillColor=none;top=0;left=0;bottom=0;right=0;" parent="BamsP_97NYOLKTMDXpIl-205" vertex="1">
          <mxGeometry width="30" height="30" as="geometry" />
        </mxCell>
        <mxCell id="BamsP_97NYOLKTMDXpIl-207" value="&quot;BAL_DIRECTION&quot; decimal(1,0) DEFAULT NULL COMMENT &#39;1:借\r\n            2:贷\r\n            0:双向&#39;" style="shape=partialRectangle;overflow=hidden;connectable=0;fillColor=none;top=0;left=0;bottom=0;right=0;align=left;spacingLeft=6;" parent="BamsP_97NYOLKTMDXpIl-205" vertex="1">
          <mxGeometry x="30" width="290" height="30" as="geometry" />
        </mxCell>
        <mxCell id="BamsP_97NYOLKTMDXpIl-208" value="" style="shape=partialRectangle;collapsible=0;dropTarget=0;pointerEvents=0;fillColor=none;points=[[0,0.5],[1,0.5]];portConstraint=eastwest;top=0;left=0;right=0;bottom=0;" parent="BamsP_97NYOLKTMDXpIl-192" vertex="1">
          <mxGeometry y="180" width="320" height="30" as="geometry" />
        </mxCell>
        <mxCell id="BamsP_97NYOLKTMDXpIl-209" value="" style="shape=partialRectangle;overflow=hidden;connectable=0;fillColor=none;top=0;left=0;bottom=0;right=0;" parent="BamsP_97NYOLKTMDXpIl-208" vertex="1">
          <mxGeometry width="30" height="30" as="geometry" />
        </mxCell>
        <mxCell id="BamsP_97NYOLKTMDXpIl-210" value="&quot;CURR_BAL_DIRECTION&quot; decimal(1,0) DEFAULT NULL COMMENT &#39;1:借\r\n            2:贷&#39;" style="shape=partialRectangle;overflow=hidden;connectable=0;fillColor=none;top=0;left=0;bottom=0;right=0;align=left;spacingLeft=6;" parent="BamsP_97NYOLKTMDXpIl-208" vertex="1">
          <mxGeometry x="30" width="290" height="30" as="geometry" />
        </mxCell>
        <mxCell id="BamsP_97NYOLKTMDXpIl-211" value="" style="shape=partialRectangle;collapsible=0;dropTarget=0;pointerEvents=0;fillColor=none;points=[[0,0.5],[1,0.5]];portConstraint=eastwest;top=0;left=0;right=0;bottom=0;" parent="BamsP_97NYOLKTMDXpIl-192" vertex="1">
          <mxGeometry y="210" width="320" height="30" as="geometry" />
        </mxCell>
        <mxCell id="BamsP_97NYOLKTMDXpIl-212" value="" style="shape=partialRectangle;overflow=hidden;connectable=0;fillColor=none;top=0;left=0;bottom=0;right=0;" parent="BamsP_97NYOLKTMDXpIl-211" vertex="1">
          <mxGeometry width="30" height="30" as="geometry" />
        </mxCell>
        <mxCell id="BamsP_97NYOLKTMDXpIl-213" value="&quot;CURRENCY_CODE&quot; varchar(3) DEFAULT NULL COMMENT &#39;货币类型&#39;" style="shape=partialRectangle;overflow=hidden;connectable=0;fillColor=none;top=0;left=0;bottom=0;right=0;align=left;spacingLeft=6;" parent="BamsP_97NYOLKTMDXpIl-211" vertex="1">
          <mxGeometry x="30" width="290" height="30" as="geometry" />
        </mxCell>
        <mxCell id="BamsP_97NYOLKTMDXpIl-214" value="" style="shape=partialRectangle;collapsible=0;dropTarget=0;pointerEvents=0;fillColor=none;points=[[0,0.5],[1,0.5]];portConstraint=eastwest;top=0;left=0;right=0;bottom=0;" parent="BamsP_97NYOLKTMDXpIl-192" vertex="1">
          <mxGeometry y="240" width="320" height="30" as="geometry" />
        </mxCell>
        <mxCell id="BamsP_97NYOLKTMDXpIl-215" value="" style="shape=partialRectangle;overflow=hidden;connectable=0;fillColor=none;top=0;left=0;bottom=0;right=0;" parent="BamsP_97NYOLKTMDXpIl-214" vertex="1">
          <mxGeometry width="30" height="30" as="geometry" />
        </mxCell>
        <mxCell id="BamsP_97NYOLKTMDXpIl-216" value="&quot;BALANCE&quot; decimal(19,4) DEFAULT &#39;0.0000&#39; COMMENT &#39;余额&#39;" style="shape=partialRectangle;overflow=hidden;connectable=0;fillColor=none;top=0;left=0;bottom=0;right=0;align=left;spacingLeft=6;" parent="BamsP_97NYOLKTMDXpIl-214" vertex="1">
          <mxGeometry x="30" width="290" height="30" as="geometry" />
        </mxCell>
        <mxCell id="BamsP_97NYOLKTMDXpIl-217" value="" style="shape=partialRectangle;collapsible=0;dropTarget=0;pointerEvents=0;fillColor=none;points=[[0,0.5],[1,0.5]];portConstraint=eastwest;top=0;left=0;right=0;bottom=0;" parent="BamsP_97NYOLKTMDXpIl-192" vertex="1">
          <mxGeometry y="270" width="320" height="30" as="geometry" />
        </mxCell>
        <mxCell id="BamsP_97NYOLKTMDXpIl-218" value="" style="shape=partialRectangle;overflow=hidden;connectable=0;fillColor=none;top=0;left=0;bottom=0;right=0;" parent="BamsP_97NYOLKTMDXpIl-217" vertex="1">
          <mxGeometry width="30" height="30" as="geometry" />
        </mxCell>
        <mxCell id="BamsP_97NYOLKTMDXpIl-219" value="&quot;LAST_UPDATE_TIME&quot; timestamp NOT NULL DEFAULT CURRENT_TIMESTAMP ON UPDATE CURRENT_TIMESTAMP COMMENT &#39;最后更新时间&#39;" style="shape=partialRectangle;overflow=hidden;connectable=0;fillColor=none;top=0;left=0;bottom=0;right=0;align=left;spacingLeft=6;" parent="BamsP_97NYOLKTMDXpIl-217" vertex="1">
          <mxGeometry x="30" width="290" height="30" as="geometry" />
        </mxCell>
        <mxCell id="BamsP_97NYOLKTMDXpIl-220" value="账户" style="swimlane;fontStyle=0;childLayout=stackLayout;horizontal=1;startSize=26;horizontalStack=0;resizeParent=1;resizeParentMax=0;resizeLast=0;collapsible=1;marginBottom=0;" parent="1" vertex="1">
          <mxGeometry x="1140" y="-150" width="210" height="286" as="geometry" />
        </mxCell>
        <mxCell id="BamsP_97NYOLKTMDXpIl-221" value="账户号" style="text;strokeColor=none;fillColor=none;align=left;verticalAlign=top;spacingLeft=4;spacingRight=4;overflow=hidden;rotatable=0;points=[[0,0.5],[1,0.5]];portConstraint=eastwest;" parent="BamsP_97NYOLKTMDXpIl-220" vertex="1">
          <mxGeometry y="26" width="210" height="26" as="geometry" />
        </mxCell>
        <mxCell id="BamsP_97NYOLKTMDXpIl-222" value="科目号" style="text;strokeColor=none;fillColor=none;align=left;verticalAlign=top;spacingLeft=4;spacingRight=4;overflow=hidden;rotatable=0;points=[[0,0.5],[1,0.5]];portConstraint=eastwest;" parent="BamsP_97NYOLKTMDXpIl-220" vertex="1">
          <mxGeometry y="52" width="210" height="26" as="geometry" />
        </mxCell>
        <mxCell id="BamsP_97NYOLKTMDXpIl-223" value="账户名称" style="text;strokeColor=none;fillColor=none;align=left;verticalAlign=top;spacingLeft=4;spacingRight=4;overflow=hidden;rotatable=0;points=[[0,0.5],[1,0.5]];portConstraint=eastwest;" parent="BamsP_97NYOLKTMDXpIl-220" vertex="1">
          <mxGeometry y="78" width="210" height="26" as="geometry" />
        </mxCell>
        <mxCell id="BamsP_97NYOLKTMDXpIl-225" value="余额方向（D:借 C:贷）" style="text;strokeColor=none;fillColor=none;align=left;verticalAlign=top;spacingLeft=4;spacingRight=4;overflow=hidden;rotatable=0;points=[[0,0.5],[1,0.5]];portConstraint=eastwest;" parent="BamsP_97NYOLKTMDXpIl-220" vertex="1">
          <mxGeometry y="104" width="210" height="26" as="geometry" />
        </mxCell>
        <mxCell id="BamsP_97NYOLKTMDXpIl-226" value="币种" style="text;strokeColor=none;fillColor=none;align=left;verticalAlign=top;spacingLeft=4;spacingRight=4;overflow=hidden;rotatable=0;points=[[0,0.5],[1,0.5]];portConstraint=eastwest;" parent="BamsP_97NYOLKTMDXpIl-220" vertex="1">
          <mxGeometry y="130" width="210" height="26" as="geometry" />
        </mxCell>
        <mxCell id="BamsP_97NYOLKTMDXpIl-228" value="状态（正常、止入、止出、双向冻结）" style="text;strokeColor=none;fillColor=none;align=left;verticalAlign=top;spacingLeft=4;spacingRight=4;overflow=hidden;rotatable=0;points=[[0,0.5],[1,0.5]];portConstraint=eastwest;" parent="BamsP_97NYOLKTMDXpIl-220" vertex="1">
          <mxGeometry y="156" width="210" height="26" as="geometry" />
        </mxCell>
        <mxCell id="BamsP_97NYOLKTMDXpIl-229" value="账户属性（公、私、内部）" style="text;strokeColor=none;fillColor=none;align=left;verticalAlign=top;spacingLeft=4;spacingRight=4;overflow=hidden;rotatable=0;points=[[0,0.5],[1,0.5]];portConstraint=eastwest;" parent="BamsP_97NYOLKTMDXpIl-220" vertex="1">
          <mxGeometry y="182" width="210" height="26" as="geometry" />
        </mxCell>
        <mxCell id="BamsP_97NYOLKTMDXpIl-230" value="账户类型" style="text;strokeColor=none;fillColor=none;align=left;verticalAlign=top;spacingLeft=4;spacingRight=4;overflow=hidden;rotatable=0;points=[[0,0.5],[1,0.5]];portConstraint=eastwest;" parent="BamsP_97NYOLKTMDXpIl-220" vertex="1">
          <mxGeometry y="208" width="210" height="26" as="geometry" />
        </mxCell>
        <mxCell id="BamsP_97NYOLKTMDXpIl-231" value="创建时间" style="text;strokeColor=none;fillColor=none;align=left;verticalAlign=top;spacingLeft=4;spacingRight=4;overflow=hidden;rotatable=0;points=[[0,0.5],[1,0.5]];portConstraint=eastwest;" parent="BamsP_97NYOLKTMDXpIl-220" vertex="1">
          <mxGeometry y="234" width="210" height="26" as="geometry" />
        </mxCell>
        <mxCell id="BamsP_97NYOLKTMDXpIl-232" value="更新时间" style="text;strokeColor=none;fillColor=none;align=left;verticalAlign=top;spacingLeft=4;spacingRight=4;overflow=hidden;rotatable=0;points=[[0,0.5],[1,0.5]];portConstraint=eastwest;" parent="BamsP_97NYOLKTMDXpIl-220" vertex="1">
          <mxGeometry y="260" width="210" height="26" as="geometry" />
        </mxCell>
        <mxCell id="BamsP_97NYOLKTMDXpIl-233" value="账户余额" style="swimlane;fontStyle=0;childLayout=stackLayout;horizontal=1;startSize=26;horizontalStack=0;resizeParent=1;resizeParentMax=0;resizeLast=0;collapsible=1;marginBottom=0;" parent="1" vertex="1">
          <mxGeometry x="1450" y="-130" width="240" height="156" as="geometry" />
        </mxCell>
        <mxCell id="BamsP_97NYOLKTMDXpIl-234" value="账户号" style="text;strokeColor=none;fillColor=none;align=left;verticalAlign=top;spacingLeft=4;spacingRight=4;overflow=hidden;rotatable=0;points=[[0,0.5],[1,0.5]];portConstraint=eastwest;" parent="BamsP_97NYOLKTMDXpIl-233" vertex="1">
          <mxGeometry y="26" width="240" height="26" as="geometry" />
        </mxCell>
        <mxCell id="BamsP_97NYOLKTMDXpIl-235" value="资金属性（DR:借记 CR:贷记 FR:冻结）" style="text;strokeColor=none;fillColor=none;align=left;verticalAlign=top;spacingLeft=4;spacingRight=4;overflow=hidden;rotatable=0;points=[[0,0.5],[1,0.5]];portConstraint=eastwest;" parent="BamsP_97NYOLKTMDXpIl-233" vertex="1">
          <mxGeometry y="52" width="240" height="26" as="geometry" />
        </mxCell>
        <mxCell id="BamsP_97NYOLKTMDXpIl-236" value="余额" style="text;strokeColor=none;fillColor=none;align=left;verticalAlign=top;spacingLeft=4;spacingRight=4;overflow=hidden;rotatable=0;points=[[0,0.5],[1,0.5]];portConstraint=eastwest;" parent="BamsP_97NYOLKTMDXpIl-233" vertex="1">
          <mxGeometry y="78" width="240" height="26" as="geometry" />
        </mxCell>
        <mxCell id="BamsP_97NYOLKTMDXpIl-242" value="创建时间" style="text;strokeColor=none;fillColor=none;align=left;verticalAlign=top;spacingLeft=4;spacingRight=4;overflow=hidden;rotatable=0;points=[[0,0.5],[1,0.5]];portConstraint=eastwest;" parent="BamsP_97NYOLKTMDXpIl-233" vertex="1">
          <mxGeometry y="104" width="240" height="26" as="geometry" />
        </mxCell>
        <mxCell id="BamsP_97NYOLKTMDXpIl-243" value="更新时间" style="text;strokeColor=none;fillColor=none;align=left;verticalAlign=top;spacingLeft=4;spacingRight=4;overflow=hidden;rotatable=0;points=[[0,0.5],[1,0.5]];portConstraint=eastwest;" parent="BamsP_97NYOLKTMDXpIl-233" vertex="1">
          <mxGeometry y="130" width="240" height="26" as="geometry" />
        </mxCell>
        <mxCell id="XNVPmnyEU-mS6Xfqk4zj-5" value="OuterAccount（外部账户）" style="swimlane;childLayout=stackLayout;horizontal=1;startSize=30;horizontalStack=0;rounded=1;fontSize=14;fontStyle=0;strokeWidth=2;resizeParent=0;resizeLast=1;shadow=0;dashed=0;align=center;" vertex="1" parent="1">
          <mxGeometry x="2260" y="-220" width="330" height="180" as="geometry" />
        </mxCell>
        <mxCell id="XNVPmnyEU-mS6Xfqk4zj-6" value="+frozenStatusEnum:冻结状态&#xa;+accountBalanceMap:余额&#xa;-debitBalance:借记账户余额&#xa;-creditBalance:贷记账户余额&#xa;-frozenBalance:冻结账户余额&#xa;-unfrozenBalance:解冻账户余额&#xa;-frozen:冻结账户&#xa;-frozenDebit:冻结借方&#xa;-frozenCredit:冻结贷方&#xa;-unfrozen:解冻" style="align=left;strokeColor=none;fillColor=none;spacingLeft=4;fontSize=12;verticalAlign=top;resizable=0;rotatable=0;part=1;" vertex="1" parent="XNVPmnyEU-mS6Xfqk4zj-5">
          <mxGeometry y="30" width="330" height="150" as="geometry" />
        </mxCell>
        <mxCell id="XNVPmnyEU-mS6Xfqk4zj-11" value="OuterSubAccount（外部子账户）" style="swimlane;childLayout=stackLayout;horizontal=1;startSize=30;horizontalStack=0;rounded=1;fontSize=14;fontStyle=0;strokeWidth=2;resizeParent=0;resizeLast=1;shadow=0;dashed=0;align=center;" vertex="1" parent="1">
          <mxGeometry x="2260" y="50" width="230" height="140" as="geometry" />
        </mxCell>
        <mxCell id="XNVPmnyEU-mS6Xfqk4zj-12" value="+accountNo:账户号&#xa;+balanceType:余额类型&#xa;+balance:余额&#xa;-add:加金额&#xa;-subtract:减金额" style="align=left;strokeColor=none;fillColor=none;spacingLeft=4;fontSize=12;verticalAlign=top;resizable=0;rotatable=0;part=1;" vertex="1" parent="XNVPmnyEU-mS6Xfqk4zj-11">
          <mxGeometry y="30" width="230" height="110" as="geometry" />
        </mxCell>
        <mxCell id="XNVPmnyEU-mS6Xfqk4zj-13" value="" style="edgeStyle=entityRelationEdgeStyle;fontSize=12;html=1;endArrow=ERoneToMany;" edge="1" parent="1" source="XNVPmnyEU-mS6Xfqk4zj-6" target="XNVPmnyEU-mS6Xfqk4zj-11">
          <mxGeometry width="100" height="100" relative="1" as="geometry">
            <mxPoint x="2780" y="-120" as="sourcePoint" />
            <mxPoint x="2880" y="-220" as="targetPoint" />
          </mxGeometry>
        </mxCell>
        <mxCell id="XNVPmnyEU-mS6Xfqk4zj-14" value="BalanceDirectionEnum（余额方向）" style="swimlane;fontStyle=0;childLayout=stackLayout;horizontal=1;startSize=26;horizontalStack=0;resizeParent=1;resizeParentMax=0;resizeLast=0;collapsible=1;marginBottom=0;align=center;fontSize=14;" vertex="1" parent="1">
          <mxGeometry x="1830" y="-440" width="270" height="86" as="geometry" />
        </mxCell>
        <mxCell id="XNVPmnyEU-mS6Xfqk4zj-15" value="DEBIT:借方" style="text;strokeColor=none;fillColor=none;spacingLeft=4;spacingRight=4;overflow=hidden;rotatable=0;points=[[0,0.5],[1,0.5]];portConstraint=eastwest;fontSize=12;" vertex="1" parent="XNVPmnyEU-mS6Xfqk4zj-14">
          <mxGeometry y="26" width="270" height="30" as="geometry" />
        </mxCell>
        <mxCell id="XNVPmnyEU-mS6Xfqk4zj-16" value="CREDIT:贷方" style="text;strokeColor=none;fillColor=none;spacingLeft=4;spacingRight=4;overflow=hidden;rotatable=0;points=[[0,0.5],[1,0.5]];portConstraint=eastwest;fontSize=12;" vertex="1" parent="XNVPmnyEU-mS6Xfqk4zj-14">
          <mxGeometry y="56" width="270" height="30" as="geometry" />
        </mxCell>
        <mxCell id="XNVPmnyEU-mS6Xfqk4zj-18" value="FrozenStatusEnum（冻结状态）" style="swimlane;fontStyle=0;childLayout=stackLayout;horizontal=1;startSize=26;horizontalStack=0;resizeParent=1;resizeParentMax=0;resizeLast=0;collapsible=1;marginBottom=0;align=center;fontSize=14;" vertex="1" parent="1">
          <mxGeometry x="1830" y="-310" width="270" height="146" as="geometry" />
        </mxCell>
        <mxCell id="XNVPmnyEU-mS6Xfqk4zj-19" value="UNFROZEN:未冻结" style="text;strokeColor=none;fillColor=none;spacingLeft=4;spacingRight=4;overflow=hidden;rotatable=0;points=[[0,0.5],[1,0.5]];portConstraint=eastwest;fontSize=12;" vertex="1" parent="XNVPmnyEU-mS6Xfqk4zj-18">
          <mxGeometry y="26" width="270" height="30" as="geometry" />
        </mxCell>
        <mxCell id="XNVPmnyEU-mS6Xfqk4zj-20" value="DEBIT_FROZEN:借方冻结" style="text;strokeColor=none;fillColor=none;spacingLeft=4;spacingRight=4;overflow=hidden;rotatable=0;points=[[0,0.5],[1,0.5]];portConstraint=eastwest;fontSize=12;" vertex="1" parent="XNVPmnyEU-mS6Xfqk4zj-18">
          <mxGeometry y="56" width="270" height="30" as="geometry" />
        </mxCell>
        <mxCell id="XNVPmnyEU-mS6Xfqk4zj-21" value="CREDIT_FROZEN:贷方冻结" style="text;strokeColor=none;fillColor=none;spacingLeft=4;spacingRight=4;overflow=hidden;rotatable=0;points=[[0,0.5],[1,0.5]];portConstraint=eastwest;fontSize=12;" vertex="1" parent="XNVPmnyEU-mS6Xfqk4zj-18">
          <mxGeometry y="86" width="270" height="30" as="geometry" />
        </mxCell>
        <mxCell id="XNVPmnyEU-mS6Xfqk4zj-22" value="FROZEN:双向冻结" style="text;strokeColor=none;fillColor=none;spacingLeft=4;spacingRight=4;overflow=hidden;rotatable=0;points=[[0,0.5],[1,0.5]];portConstraint=eastwest;fontSize=12;" vertex="1" parent="XNVPmnyEU-mS6Xfqk4zj-18">
          <mxGeometry y="116" width="270" height="30" as="geometry" />
        </mxCell>
        <mxCell id="XNVPmnyEU-mS6Xfqk4zj-23" value="AccountTypeEnum（账户类型）" style="swimlane;fontStyle=0;childLayout=stackLayout;horizontal=1;startSize=26;horizontalStack=0;resizeParent=1;resizeParentMax=0;resizeLast=0;collapsible=1;marginBottom=0;align=center;fontSize=14;" vertex="1" parent="1">
          <mxGeometry x="1830" y="-130" width="270" height="116" as="geometry" />
        </mxCell>
        <mxCell id="XNVPmnyEU-mS6Xfqk4zj-24" value="ENTERPRISE:对公" style="text;strokeColor=none;fillColor=none;spacingLeft=4;spacingRight=4;overflow=hidden;rotatable=0;points=[[0,0.5],[1,0.5]];portConstraint=eastwest;fontSize=12;" vertex="1" parent="XNVPmnyEU-mS6Xfqk4zj-23">
          <mxGeometry y="26" width="270" height="30" as="geometry" />
        </mxCell>
        <mxCell id="XNVPmnyEU-mS6Xfqk4zj-25" value="PERSONAL:对私" style="text;strokeColor=none;fillColor=none;spacingLeft=4;spacingRight=4;overflow=hidden;rotatable=0;points=[[0,0.5],[1,0.5]];portConstraint=eastwest;fontSize=12;" vertex="1" parent="XNVPmnyEU-mS6Xfqk4zj-23">
          <mxGeometry y="56" width="270" height="30" as="geometry" />
        </mxCell>
        <mxCell id="XNVPmnyEU-mS6Xfqk4zj-26" value="INNER:内部户" style="text;strokeColor=none;fillColor=none;spacingLeft=4;spacingRight=4;overflow=hidden;rotatable=0;points=[[0,0.5],[1,0.5]];portConstraint=eastwest;fontSize=12;" vertex="1" parent="XNVPmnyEU-mS6Xfqk4zj-23">
          <mxGeometry y="86" width="270" height="30" as="geometry" />
        </mxCell>
        <mxCell id="XNVPmnyEU-mS6Xfqk4zj-28" value="" style="edgeStyle=entityRelationEdgeStyle;fontSize=12;html=1;endArrow=ERmandOne;startArrow=ERmandOne;" edge="1" parent="1" source="XNVPmnyEU-mS6Xfqk4zj-14" target="XNVPmnyEU-mS6Xfqk4zj-45">
          <mxGeometry width="100" height="100" relative="1" as="geometry">
            <mxPoint x="2180" y="-70" as="sourcePoint" />
            <mxPoint x="2280" y="-170" as="targetPoint" />
          </mxGeometry>
        </mxCell>
        <mxCell id="XNVPmnyEU-mS6Xfqk4zj-29" value="" style="edgeStyle=entityRelationEdgeStyle;fontSize=12;html=1;endArrow=ERmandOne;startArrow=ERmandOne;" edge="1" parent="1" source="XNVPmnyEU-mS6Xfqk4zj-18" target="XNVPmnyEU-mS6Xfqk4zj-6">
          <mxGeometry width="100" height="100" relative="1" as="geometry">
            <mxPoint x="2110" y="-387" as="sourcePoint" />
            <mxPoint x="2270" y="-300" as="targetPoint" />
          </mxGeometry>
        </mxCell>
        <mxCell id="XNVPmnyEU-mS6Xfqk4zj-30" value="" style="edgeStyle=entityRelationEdgeStyle;fontSize=12;html=1;endArrow=ERmandOne;startArrow=ERmandOne;" edge="1" parent="1" source="XNVPmnyEU-mS6Xfqk4zj-23" target="XNVPmnyEU-mS6Xfqk4zj-45">
          <mxGeometry width="100" height="100" relative="1" as="geometry">
            <mxPoint x="760" y="-237" as="sourcePoint" />
            <mxPoint x="920" y="-310" as="targetPoint" />
          </mxGeometry>
        </mxCell>
        <mxCell id="XNVPmnyEU-mS6Xfqk4zj-31" value="AccountTitle（账户科目）" style="swimlane;childLayout=stackLayout;horizontal=1;startSize=30;horizontalStack=0;rounded=1;fontSize=14;fontStyle=0;strokeWidth=2;resizeParent=0;resizeLast=1;shadow=0;dashed=0;align=center;" vertex="1" parent="1">
          <mxGeometry x="2380" y="-704" width="330" height="184" as="geometry" />
        </mxCell>
        <mxCell id="XNVPmnyEU-mS6Xfqk4zj-32" value="+code:科目代码&#xa;+name:科目名称&#xa;+level:科目级别&#xa;+parentCode:父科目代码&#xa;+isLeaf:是否叶子节点&#xa;+accountElementsEnum:会计要素&#xa;+balanceDirectionEnum:余额方向&#xa;+isEnable:是否可用&#xa;+memo:备注" style="align=left;strokeColor=none;fillColor=none;spacingLeft=4;fontSize=12;verticalAlign=top;resizable=0;rotatable=0;part=1;" vertex="1" parent="XNVPmnyEU-mS6Xfqk4zj-31">
          <mxGeometry y="30" width="330" height="154" as="geometry" />
        </mxCell>
        <mxCell id="XNVPmnyEU-mS6Xfqk4zj-33" value="" style="edgeStyle=entityRelationEdgeStyle;fontSize=12;html=1;endArrow=ERmandOne;startArrow=ERmandOne;" edge="1" parent="1" source="XNVPmnyEU-mS6Xfqk4zj-14" target="XNVPmnyEU-mS6Xfqk4zj-31">
          <mxGeometry width="100" height="100" relative="1" as="geometry">
            <mxPoint x="2410" y="-270" as="sourcePoint" />
            <mxPoint x="2510" y="-370" as="targetPoint" />
          </mxGeometry>
        </mxCell>
        <mxCell id="XNVPmnyEU-mS6Xfqk4zj-34" value="AccountElementsEnum（会计要素）" style="swimlane;fontStyle=0;childLayout=stackLayout;horizontal=1;startSize=26;horizontalStack=0;resizeParent=1;resizeParentMax=0;resizeLast=0;collapsible=1;marginBottom=0;align=center;fontSize=14;" vertex="1" parent="1">
          <mxGeometry x="1830" y="-680" width="270" height="146" as="geometry" />
        </mxCell>
        <mxCell id="XNVPmnyEU-mS6Xfqk4zj-35" value="ASSETS:资产类" style="text;strokeColor=none;fillColor=none;spacingLeft=4;spacingRight=4;overflow=hidden;rotatable=0;points=[[0,0.5],[1,0.5]];portConstraint=eastwest;fontSize=12;" vertex="1" parent="XNVPmnyEU-mS6Xfqk4zj-34">
          <mxGeometry y="26" width="270" height="30" as="geometry" />
        </mxCell>
        <mxCell id="XNVPmnyEU-mS6Xfqk4zj-36" value="LIABILITIES:负债类" style="text;strokeColor=none;fillColor=none;spacingLeft=4;spacingRight=4;overflow=hidden;rotatable=0;points=[[0,0.5],[1,0.5]];portConstraint=eastwest;fontSize=12;" vertex="1" parent="XNVPmnyEU-mS6Xfqk4zj-34">
          <mxGeometry y="56" width="270" height="30" as="geometry" />
        </mxCell>
        <mxCell id="XNVPmnyEU-mS6Xfqk4zj-37" value="OWNERS_EQUITY:所有者权益类" style="text;strokeColor=none;fillColor=none;spacingLeft=4;spacingRight=4;overflow=hidden;rotatable=0;points=[[0,0.5],[1,0.5]];portConstraint=eastwest;fontSize=12;" vertex="1" parent="XNVPmnyEU-mS6Xfqk4zj-34">
          <mxGeometry y="86" width="270" height="30" as="geometry" />
        </mxCell>
        <mxCell id="XNVPmnyEU-mS6Xfqk4zj-38" value="COMMON:共同类" style="text;strokeColor=none;fillColor=none;spacingLeft=4;spacingRight=4;overflow=hidden;rotatable=0;points=[[0,0.5],[1,0.5]];portConstraint=eastwest;fontSize=12;" vertex="1" parent="XNVPmnyEU-mS6Xfqk4zj-34">
          <mxGeometry y="116" width="270" height="30" as="geometry" />
        </mxCell>
        <mxCell id="XNVPmnyEU-mS6Xfqk4zj-39" value="" style="edgeStyle=entityRelationEdgeStyle;fontSize=12;html=1;endArrow=ERmandOne;startArrow=ERmandOne;" edge="1" parent="1" source="XNVPmnyEU-mS6Xfqk4zj-34" target="XNVPmnyEU-mS6Xfqk4zj-31">
          <mxGeometry width="100" height="100" relative="1" as="geometry">
            <mxPoint x="2110" y="-387" as="sourcePoint" />
            <mxPoint x="2270" y="-585" as="targetPoint" />
          </mxGeometry>
        </mxCell>
        <mxCell id="XNVPmnyEU-mS6Xfqk4zj-40" value="" style="edgeStyle=entityRelationEdgeStyle;fontSize=12;html=1;endArrow=ERmandOne;startArrow=ERmandOne;" edge="1" parent="1" source="XNVPmnyEU-mS6Xfqk4zj-44" target="XNVPmnyEU-mS6Xfqk4zj-31">
          <mxGeometry width="100" height="100" relative="1" as="geometry">
            <mxPoint x="2110" y="-387" as="sourcePoint" />
            <mxPoint x="2270" y="-585" as="targetPoint" />
          </mxGeometry>
        </mxCell>
        <mxCell id="XNVPmnyEU-mS6Xfqk4zj-42" value="InnerAccount（内部账户）" style="swimlane;childLayout=stackLayout;horizontal=1;startSize=30;horizontalStack=0;rounded=1;fontSize=14;fontStyle=0;strokeWidth=2;resizeParent=0;resizeLast=1;shadow=0;dashed=0;align=center;" vertex="1" parent="1">
          <mxGeometry x="2620" y="-220" width="250" height="100" as="geometry" />
        </mxCell>
        <mxCell id="XNVPmnyEU-mS6Xfqk4zj-43" value="+balance:余额&#xa;-debitBalance:借记账户余额&#xa;-creditBalance:贷记账户余额" style="align=left;strokeColor=none;fillColor=none;spacingLeft=4;fontSize=12;verticalAlign=top;resizable=0;rotatable=0;part=1;" vertex="1" parent="XNVPmnyEU-mS6Xfqk4zj-42">
          <mxGeometry y="30" width="250" height="70" as="geometry" />
        </mxCell>
        <mxCell id="XNVPmnyEU-mS6Xfqk4zj-44" value="Account（账户）" style="swimlane;childLayout=stackLayout;horizontal=1;startSize=30;horizontalStack=0;rounded=1;fontSize=14;fontStyle=0;strokeWidth=2;resizeParent=0;resizeLast=1;shadow=0;dashed=0;align=center;" vertex="1" parent="1">
          <mxGeometry x="2380" y="-480" width="330" height="140" as="geometry" />
        </mxCell>
        <mxCell id="XNVPmnyEU-mS6Xfqk4zj-45" value="+accountNo:账户号&#xa;+accountName:账户名称&#xa;+accountTitle:科目&#xa;+currency:币种&#xa;+balanceDirectionEnum:余额方向&#xa;+accountTypeEnum:账户类型&#xa;" style="align=left;strokeColor=none;fillColor=none;spacingLeft=4;fontSize=12;verticalAlign=top;resizable=0;rotatable=0;part=1;" vertex="1" parent="XNVPmnyEU-mS6Xfqk4zj-44">
          <mxGeometry y="30" width="330" height="110" as="geometry" />
        </mxCell>
        <mxCell id="XNVPmnyEU-mS6Xfqk4zj-46" value="" style="endArrow=classic;html=1;" edge="1" parent="1" source="XNVPmnyEU-mS6Xfqk4zj-5" target="XNVPmnyEU-mS6Xfqk4zj-45">
          <mxGeometry width="50" height="50" relative="1" as="geometry">
            <mxPoint x="2250" y="-280" as="sourcePoint" />
            <mxPoint x="2300" y="-330" as="targetPoint" />
          </mxGeometry>
        </mxCell>
        <mxCell id="XNVPmnyEU-mS6Xfqk4zj-47" value="" style="endArrow=classic;html=1;" edge="1" parent="1" source="XNVPmnyEU-mS6Xfqk4zj-42" target="XNVPmnyEU-mS6Xfqk4zj-45">
          <mxGeometry width="50" height="50" relative="1" as="geometry">
            <mxPoint x="2405" y="-210" as="sourcePoint" />
            <mxPoint x="2405" y="-320" as="targetPoint" />
          </mxGeometry>
        </mxCell>
        <mxCell id="XNVPmnyEU-mS6Xfqk4zj-48" value="FundTypeEnum（资金类型）" style="swimlane;fontStyle=0;childLayout=stackLayout;horizontal=1;startSize=26;horizontalStack=0;resizeParent=1;resizeParentMax=0;resizeLast=0;collapsible=1;marginBottom=0;align=center;fontSize=14;" vertex="1" parent="1">
          <mxGeometry x="1840" y="80" width="270" height="86" as="geometry" />
        </mxCell>
        <mxCell id="XNVPmnyEU-mS6Xfqk4zj-49" value="DEBIT:借记资金" style="text;strokeColor=none;fillColor=none;spacingLeft=4;spacingRight=4;overflow=hidden;rotatable=0;points=[[0,0.5],[1,0.5]];portConstraint=eastwest;fontSize=12;" vertex="1" parent="XNVPmnyEU-mS6Xfqk4zj-48">
          <mxGeometry y="26" width="270" height="30" as="geometry" />
        </mxCell>
        <mxCell id="XNVPmnyEU-mS6Xfqk4zj-50" value="FROZEN:冻结资金" style="text;strokeColor=none;fillColor=none;spacingLeft=4;spacingRight=4;overflow=hidden;rotatable=0;points=[[0,0.5],[1,0.5]];portConstraint=eastwest;fontSize=12;" vertex="1" parent="XNVPmnyEU-mS6Xfqk4zj-48">
          <mxGeometry y="56" width="270" height="30" as="geometry" />
        </mxCell>
        <mxCell id="XNVPmnyEU-mS6Xfqk4zj-52" value="" style="edgeStyle=entityRelationEdgeStyle;fontSize=12;html=1;endArrow=ERmandOne;startArrow=ERmandOne;" edge="1" parent="1" source="XNVPmnyEU-mS6Xfqk4zj-49" target="XNVPmnyEU-mS6Xfqk4zj-12">
          <mxGeometry width="100" height="100" relative="1" as="geometry">
            <mxPoint x="2110" y="-62" as="sourcePoint" />
            <mxPoint x="2390" y="-385" as="targetPoint" />
          </mxGeometry>
        </mxCell>
      </root>
    </mxGraphModel>
  </diagram>
</mxfile>
